<svg version="1.0" xmlns="http://www.w3.org/2000/svg" width="36" height="36" viewBox="0 0 242 242"><g fill="#A50064"><path d="M20.9 11.8c-3.9 2-6.2 4.1-8.4 7.7l-3 4.8-.3 94.6c-.2 72.9 0 95.6 1 99.1 1.8 6.8 8.9 13.5 15.9 15 4 .8 30.2 1 98.4.8l93-.3 4-2.2c4.6-2.4 7.5-5.4 10.1-10.3 1.8-3.3 1.9-7.9 2.2-97.8.2-64.9-.1-95.6-.8-98.3-1.4-5-7.3-11.7-12.5-14-3.8-1.8-9.3-1.9-99.1-1.9H26.2l-5.3 2.8zm56 21.9 4.1 2.1 5.8-2.4c11-4.5 23.3-2.2 31.6 6.1 7.1 7.2 7.6 9.8 7.6 39.7v25.9l-11.2-.3-11.3-.3-.5-25.3c-.5-26.4-.7-27.2-5-27.2s-4.5.8-5 27.2l-.5 25.3-11.2.3-11.3.3V80.2c0-23.7-.1-25-2-26.7-1.6-1.5-2.6-1.7-4.8-.9l-2.7.9L60 79l-.5 25.5-11.3.3-11.3.3.3-27.9.3-27.9 3-4.9c3.2-5.1 10.3-10.7 15.9-12.4 4.8-1.5 15.9-.6 20.5 1.7zm107.5.6c7.7 3.5 14 9.8 17.9 17.6 2.9 6 3.2 7.4 3.2 16.1 0 8.4-.3 10.2-2.8 15.2-3.9 7.9-10.4 14.3-18.5 18.1-5.8 2.7-7.7 3.1-14.7 3-10.4 0-17.7-2.8-24.8-9.3-21.4-19.6-13.5-53.2 14.8-62.7 6.1-2 18.2-1 24.9 2zM77 118.1c4.6 2 4.6 2 9.5-.2 13.3-5.9 29.9-.2 36.8 12.6 2.1 3.8 2.2 5.5 2.5 31.2l.3 27.3H103v-24.8c0-26.5-.1-27.2-5-27.2s-5 .7-5 27.2V189H70v-24.8c0-26.5-.1-27.2-5-27.2s-5 .7-5 27.2V189H37v-26.8c0-29.7.3-31.3 7.1-38 8.6-8.7 21.3-11 32.9-6.1zm98.5-2c11.9 2.2 21.9 9.8 27.1 20.7 2.5 5 2.8 6.9 2.9 15.2 0 8.8-.3 10.1-3.2 16.1-16 32.4-62.6 25.4-69.3-10.3-3.5-18.4 10.9-38.6 29.7-41.8 6.8-1.1 6.4-1.1 12.8.1zM77 198.4c0 1.9.4 2.2 2.4 1.9 4.9-1 7.3 8.2 2.7 10.6-.9.5-3.2.8-5.1.7l-3.5-.2-.3-7.7c-.3-7.2-.1-7.7 1.8-7.7 1.4 0 2 .7 2 2.4zm15-.9c0 .8-.7 1.5-1.5 1.5s-1.5-.7-1.5-1.5.7-1.5 1.5-1.5 1.5.7 1.5 1.5zm8 6.6c0 6-.3 8-1.2 7.7s-1.4-3.1-1.6-8.1c-.2-6.4 0-7.7 1.3-7.7 1.2 0 1.5 1.5 1.5 8.1zm-47.2 2.3c.2 4.4 0 5.7-1 5.4-.7-.3-1.4-2.3-1.6-4.6-.4-5.8-3-5.7-3.4 0-.2 3-.8 4.3-1.8 4.3-1.1 0-1.6-1.3-1.8-4.3-.4-5.6-2.6-5.1-3 .6-.2 2.9-.8 4.2-1.8 4.2-1.1 0-1.4-1.4-1.4-5.9v-5.9l7.8.2 7.7.1.3 5.9zm14.6-4.8c2.1 2 2 6.3-.1 8.6-3.5 3.9-9.3.9-9.3-4.8 0-5 5.9-7.4 9.4-3.8zM92 206c0 4.7-.3 6-1.5 6s-1.5-1.3-1.5-6 .3-6 1.5-6 1.5 1.3 1.5 6zm21.4-4.4c.9.8 1.6 2.4 1.6 3.5 0 1.5-.7 1.9-3.6 1.9-2 0-3.3.4-2.9 1 .3.5 1.9.7 3.5.3 3.7-.7 4 1.3.5 2.9-5.5 2.5-10.4-3.7-7-8.8 1.8-2.8 5.6-3.2 7.9-.8zm32.4 4.6c.2 4.7 0 5.8-1.3 5.8-1.1 0-1.5-1.1-1.5-4.5 0-3.3-.4-4.5-1.4-4.5s-1.6 1.4-1.8 4.2c-.2 3-.8 4.3-1.8 4.3s-1.6-1.3-1.8-4.3c-.2-2.8-.8-4.2-1.7-4.2s-1.5 1.4-1.7 4.2c-.2 3-.8 4.3-1.8 4.3-1.1 0-1.6-1.3-1.8-4.4-.5-6.7-.3-6.9 8.5-6.7l7.8.1.3 5.7zm14.4-4.5c2.7 2.4 2.3 6.9-.8 8.9-5.5 3.7-11.7-2.5-8-8 1.9-3 6-3.5 8.8-.9zm15.8-.2c1.7 2 .9 10-1 10-1 0-1.6-1.3-1.8-4.3-.2-2.8-.8-4.2-1.7-4.2s-1.5 1.4-1.7 4.2c-.2 3-.8 4.3-1.8 4.3-1.1 0-1.6-1.4-1.8-5.6l-.3-5.6h4.5c2.6-.1 5 .4 5.6 1.2zm13.8-.3c.7.7 1.2 2.2 1.2 3.5 0 2-.5 2.3-3.6 2.3-2.2 0-3.3.4-2.9 1.1.4.6 1.9.7 3.6.4 3.3-.8 4 .9 1 2.5-4.4 2.3-8.1-.1-8.1-5.4 0-3.9 1.5-5.6 5-5.6 1.4 0 3.1.5 3.8 1.2zm9.3 2.5 1.2 3.8 1.2-3.5c.6-1.9 1.9-3.6 2.8-3.8 2.2-.4 2.1 0-1.1 8.3-2.4 6.1-3.1 7-5.5 7.3-1.9.2-2.7-.1-2.7-1.2 0-.9.7-1.6 1.5-1.6 2 0 1.9-1.9-.5-8-1.9-4.9-1.9-5-.1-5 1.4 0 2.3 1.2 3.2 3.7z"/><path d="M162.1 54.2c-14.2 7.6-8.9 28.8 7.3 28.8 6.4 0 11.2-3 13.7-8.4 3.4-7.4 1.8-14.3-4.3-19-5.1-3.8-11.2-4.4-16.7-1.4zm-.9 84.8c-10.8 6.6-9.4 23.1 2.3 27.5 13.1 5.1 25.1-6.9 20-20-3.3-8.7-14.2-12.4-22.3-7.5zm-84 66.7c.2 1.7.9 2.8 1.8 2.8s1.6-1.1 1.8-2.8c.3-2.2-.1-2.7-1.8-2.7s-2.1.5-1.8 2.7zm-15.8-1.3c-.9 2.4.4 4.8 2.3 4.4 1.2-.2 1.8-1.2 1.8-2.8 0-2.9-3.2-4.1-4.1-1.6zm46.6-.4c0 .5.9 1 2.1 1 1.1 0 1.7-.5 1.4-1-.3-.6-1.3-1-2.1-1s-1.4.4-1.4 1zm46.4.5c-.8 2.1.2 4.5 2 4.5.7 0 1.6-.7 2-1.5.8-2.1-.3-4.5-2-4.5-.8 0-1.7.7-2 1.5zm30.1-.5c-.3.5.3 1 1.4 1 1.2 0 2.1-.5 2.1-1 0-.6-.6-1-1.4-1s-1.8.4-2.1 1z"/></g></svg>